<svg xmlns="http://www.w3.org/2000/svg" viewBox="0 0 649.86 155.77"><defs><style>.cls-1{fill:#fff;}</style></defs><g id="Layer_2" data-name="Layer 2"><g id="Layer_1-2" data-name="Layer 1"><path class="cls-1" d="M36.55,37.12V30.83a23.42,23.42,0,0,0-5-1.94,22.35,22.35,0,0,0-14.46,1.18,23.71,23.71,0,0,0-7.38,5,23.28,23.28,0,0,0-5,7.42,23,23,0,0,0-1.8,9.06,22.52,22.52,0,0,0,1.8,9,23.09,23.09,0,0,0,5,7.35,23.92,23.92,0,0,0,7.3,5,21.8,21.8,0,0,0,8.92,1.82,22.61,22.61,0,0,0,6.24-.83,25.13,25.13,0,0,0,5.57-2.38L39.4,74a29.17,29.17,0,0,1-6.25,2.66,24.62,24.62,0,0,1-7,1,25.27,25.27,0,0,1-10.16-2.05A26.19,26.19,0,0,1,2,61.68,25.44,25.44,0,0,1,0,51.52a25.81,25.81,0,0,1,2-10.2A26.21,26.21,0,0,1,7.64,33a26.9,26.9,0,0,1,8.3-5.63A25,25,0,0,1,26.1,25.28a25.71,25.71,0,0,1,7,.95,26.93,26.93,0,0,1,6.32,2.7v8.19Z"/><path class="cls-1" d="M43.9,51.52a25.81,25.81,0,0,1,2-10.2A26.21,26.21,0,0,1,51.54,33a26.85,26.85,0,0,1,8.29-5.63,26,26,0,0,1,20.36,0,26.45,26.45,0,0,1,14,14,25.49,25.49,0,0,1,2.08,10.2,25.13,25.13,0,0,1-2.08,10.16A26.9,26.9,0,0,1,88.53,70a26.18,26.18,0,0,1-8.34,5.59,26.3,26.3,0,0,1-20.36,0A26.22,26.22,0,0,1,45.94,61.68,25.44,25.44,0,0,1,43.9,51.52Zm2.92.07a22.69,22.69,0,0,0,6.77,16.34,24.12,24.12,0,0,0,7.35,4.94,22.22,22.22,0,0,0,9,1.82,22.69,22.69,0,0,0,9-1.82,24.34,24.34,0,0,0,7.47-5,23.47,23.47,0,0,0,5-7.35,22.36,22.36,0,0,0,1.84-9,22.61,22.61,0,0,0-1.84-9.06,23.93,23.93,0,0,0-5-7.42A23.29,23.29,0,0,0,79,30,22.7,22.7,0,0,0,70,28.2a22,22,0,0,0-9,1.87,23.87,23.87,0,0,0-7.39,5,23.48,23.48,0,0,0-5,7.42A23,23,0,0,0,46.82,51.59Z"/><path class="cls-1" d="M97.27,25.86H112v2.93h-5.45q4.4,10.51,8.81,20.91l8.88,20.83.66,2,.66-2q4.38-10.45,8.81-20.83t8.81-20.91h-5V25.86h14.69v2.93h-6.54Q141,41.51,135.58,54.08t-10.71,25.3q-5.41-12.72-10.78-25.3T103.38,28.79H97.27Z"/><path class="cls-1" d="M159,74.11h5.7V28.79H159V25.86h14.62v2.93h-6V74.11h6V77H159Z"/><path class="cls-1" d="M179.9,74.11h4.61V28.79H179.9V25.86h15.36a27.68,27.68,0,0,1,9.94,1.79,24.42,24.42,0,0,1,8.18,5.12,24.07,24.07,0,0,1,5.56,8.08A26.61,26.61,0,0,1,221,51.45a28,28,0,0,1-1.5,8.84,23.09,23.09,0,0,1-4.86,8.27,25.5,25.5,0,0,1-8.74,6.1A32.42,32.42,0,0,1,192.77,77H179.9Zm7.53-45.32V74.11h6.39a26.85,26.85,0,0,0,10.65-1.94A22.21,22.21,0,0,0,212,67.06a21.14,21.14,0,0,0,4.52-7.24,24,24,0,0,0,1.5-8.37,23.69,23.69,0,0,0-1.8-9.4,21.22,21.22,0,0,0-4.92-7.16,21.56,21.56,0,0,0-7.27-4.53,24.75,24.75,0,0,0-8.85-1.57Z"/><path class="cls-1" d="M308.79,25.86h7.6v2.93h-5.92V74.11h6.14V77H302.06V74.11h5.48V35s0-.22,0-.51.05-.6.07-.92,0-.62,0-.91v-.58c-.15.24-.33.52-.55.84s-.48.67-.78,1.06q-1.62,2.19-4.38,5.77l-5.93,7.68q-3.17,4.09-6.45,8.3t-5.93,7.63q-5.07-6.57-8.59-11.18l-6.13-8q-2.61-3.41-4.56-5.89c-1.29-1.66-2.56-3.27-3.78-4.83l-.88-1.38c0,.53,0,1,0,1.49s.06.94.11,1.43V74.11h5.7V77H251V74.11H257V28.79H251V25.86h7.59c.54.73,1.34,1.79,2.42,3.18l3.7,4.79q2.08,2.7,4.5,5.89c1.61,2.11,3.26,4.26,4.95,6.43s3.34,4.3,5,6.4,3.13,4,4.5,5.84q6.31-8.12,12.56-16.26T308.79,25.86Z"/><path class="cls-1" d="M321.73,63.29a14,14,0,0,1,1.13-5.55,14.37,14.37,0,0,1,7.61-7.64A13.73,13.73,0,0,1,336.06,49a14,14,0,0,1,5.63,1.14,14.83,14.83,0,0,1,4.6,3.07,14.14,14.14,0,0,1,3.11,4.57,14,14,0,0,1-3.11,15.64,15.08,15.08,0,0,1-4.6,3,14,14,0,0,1-5.63,1.14,13.73,13.73,0,0,1-5.59-1.14,14.8,14.8,0,0,1-4.54-3,14.21,14.21,0,0,1-3.07-4.5A13.86,13.86,0,0,1,321.73,63.29Zm2.92,0a11.29,11.29,0,0,0,.88,4.42,11.58,11.58,0,0,0,2.42,3.6,11.44,11.44,0,0,0,3.6,2.43,11,11,0,0,0,4.4.88A11.35,11.35,0,0,0,344,71.31a11.58,11.58,0,0,0,2.42-3.6,11.52,11.52,0,0,0,0-8.83A11.51,11.51,0,0,0,344,55.27a11.76,11.76,0,0,0-3.63-2.46,10.84,10.84,0,0,0-4.44-.92,10.52,10.52,0,0,0-4.4.92,11.87,11.87,0,0,0-3.6,2.46,11.51,11.51,0,0,0-2.42,3.61A11.2,11.2,0,0,0,324.65,63.29Z"/><path class="cls-1" d="M356.83,63.29A13.78,13.78,0,0,1,358,57.74a14.39,14.39,0,0,1,7.6-7.64,13.78,13.78,0,0,1,5.6-1.14,14,14,0,0,1,5.62,1.14,14.88,14.88,0,0,1,4.61,3.07,14.14,14.14,0,0,1,3.11,4.57,14,14,0,0,1-3.11,15.64,15.13,15.13,0,0,1-4.61,3,14,14,0,0,1-5.62,1.14,13.78,13.78,0,0,1-5.6-1.14,14.75,14.75,0,0,1-4.53-3,14.21,14.21,0,0,1-3.07-4.5A13.69,13.69,0,0,1,356.83,63.29Zm2.92,0a11.11,11.11,0,0,0,.88,4.42,11.36,11.36,0,0,0,6,6,11,11,0,0,0,4.41.88,11.29,11.29,0,0,0,10.48-6.91,11.38,11.38,0,0,0-2.42-12.44,11.65,11.65,0,0,0-3.63-2.46,10.76,10.76,0,0,0-4.43-.92,10.56,10.56,0,0,0-4.41.92,11.94,11.94,0,0,0-3.59,2.46,11.34,11.34,0,0,0-2.42,3.61A11,11,0,0,0,359.75,63.29Z"/><path class="cls-1" d="M410.92,74.11h5.7V58a6.58,6.58,0,0,0-1.74-4.1,6.42,6.42,0,0,0-4.7-1.91,12.28,12.28,0,0,0-4.29.77,12.42,12.42,0,0,0-3.66,2.09A9.66,9.66,0,0,0,399.71,58a8.75,8.75,0,0,0-.92,4v12.1h5.41V77h-14V74.11h5.7V52.55H390.6V49.62h7.68l.07,2.56c0,.83.09,1.58.14,2.27s.08,1.43.08,2.26a12.16,12.16,0,0,1,4.73-5.55A13.16,13.16,0,0,1,410.67,49a8.79,8.79,0,0,1,6.38,2.26,8.35,8.35,0,0,1,2.5,5.92V74.11h5.33V77h-14Z"/><path class="cls-1" d="M434.71,69.51v3.78a6.51,6.51,0,0,0,2.88,1.19,23.55,23.55,0,0,0,3.11.21,6.34,6.34,0,0,0,1.61-.25,6,6,0,0,0,1.83-.89,6.16,6.16,0,0,0,1.53-1.6,4.08,4.08,0,0,0,.66-2.37,4.23,4.23,0,0,0-1-3,7.17,7.17,0,0,0-2.47-1.67,28.81,28.81,0,0,0-3.29-1.1,15.4,15.4,0,0,1-3.29-1.27,7.92,7.92,0,0,1-2.55-2.11,5.85,5.85,0,0,1-1-3.71,7.21,7.21,0,0,1,.73-3.31,7.48,7.48,0,0,1,1.87-2.37,7.93,7.93,0,0,1,2.56-1.42,8.82,8.82,0,0,1,2.74-.47c.19,0,.6,0,1.2.08a14.6,14.6,0,0,1,2.09.33,11.48,11.48,0,0,1,2.3.76,5.93,5.93,0,0,1,1.94,1.39v5.41h-2.92V53.22a3.41,3.41,0,0,0-1.25-.67,10,10,0,0,0-1.42-.33,8.59,8.59,0,0,0-1.25-.11h-.76a6.29,6.29,0,0,0-1.76.25,5.22,5.22,0,0,0-1.61.82,3.62,3.62,0,0,0-1.13,1.4,4.81,4.81,0,0,0-.4,2.09,3.24,3.24,0,0,0,1,2.55,9.08,9.08,0,0,0,2.55,1.55c1,.41,2.09.8,3.25,1.17a16.74,16.74,0,0,1,3.26,1.42,8.16,8.16,0,0,1,2.51,2.27,6.32,6.32,0,0,1,1,3.73,8.63,8.63,0,0,1-2,5.33,8,8,0,0,1-2.74,2.09,9.33,9.33,0,0,1-4.13.84c-.49,0-1.11,0-1.86-.11a18.2,18.2,0,0,1-2.38-.4,12.89,12.89,0,0,1-2.41-.81,5.87,5.87,0,0,1-2-1.38V69.51Z"/><path class="cls-1" d="M475.61,74.11h5.7V58a6.58,6.58,0,0,0-1.74-4.1,6.44,6.44,0,0,0-4.7-1.91,12.62,12.62,0,0,0-7.95,2.86A9.66,9.66,0,0,0,464.4,58a8.76,8.76,0,0,0-.93,4v12.1h5.41V77h-14V74.11h5.7v-49h-5.41V22.21h8.33V53.42l-.22,3.29A12.19,12.19,0,0,1,468,51.19,14.47,14.47,0,0,1,475.36,49a8.8,8.8,0,0,1,6.38,2.26,8.39,8.39,0,0,1,2.5,5.92V74.11h5.33V77h-14Z"/><path class="cls-1" d="M494,63.29a14,14,0,0,1,1.13-5.55,14.39,14.39,0,0,1,7.6-7.64,13.81,13.81,0,0,1,5.6-1.14,14,14,0,0,1,5.63,1.14,14.83,14.83,0,0,1,4.6,3.07,14.14,14.14,0,0,1,3.11,4.57,14,14,0,0,1-3.11,15.64,15.08,15.08,0,0,1-4.6,3,14,14,0,0,1-5.63,1.14,13.81,13.81,0,0,1-5.6-1.14,14.87,14.87,0,0,1-4.53-3,14.21,14.21,0,0,1-3.07-4.5A13.86,13.86,0,0,1,494,63.29Zm2.92,0a11.29,11.29,0,0,0,.88,4.42,11.58,11.58,0,0,0,2.42,3.6,11.44,11.44,0,0,0,3.6,2.43,11,11,0,0,0,4.4.88,11.35,11.35,0,0,0,8.07-3.31,11.58,11.58,0,0,0,2.42-3.6,11.52,11.52,0,0,0,0-8.83,11.51,11.51,0,0,0-2.42-3.61,11.76,11.76,0,0,0-3.63-2.46,10.84,10.84,0,0,0-4.44-.92,10.52,10.52,0,0,0-4.4.92,11.87,11.87,0,0,0-3.6,2.46,11.51,11.51,0,0,0-2.42,3.61A11.2,11.2,0,0,0,496.87,63.29Z"/><path class="cls-1" d="M533.45,31.78h2.93V49.62h8.41v2.93h-8.41V74.11h6V77h-8.92V52.55H527.1V49.62h6.35Z"/><path class="cls-1" d="M649.86,78.23c-.31,41.81-34.07,76.33-75.87,77.5a77.78,77.78,0,0,1-48.78-15.33.75.75,0,0,1,.47-1.36c1.21.05,2.42.08,3.64.08A78.11,78.11,0,0,0,579.71,1.33.75.75,0,0,1,580.28,0,78.13,78.13,0,0,1,649.86,78.23Z"/></g></g></svg>